<mxfile host="app.diagrams.net" modified="2023-03-05T01:36:48.383Z" agent="5.0 (Windows)" etag="D9aYHOE5nCU2wqoovFb0" version="21.0.2" type="github">
  <diagram id="yPxyJZ8AM_hMuL3Unpa9" name="complex gitflow">
    <mxGraphModel dx="1434" dy="821" grid="1" gridSize="10" guides="1" tooltips="1" connect="1" arrows="1" fold="1" page="1" pageScale="1" pageWidth="1100" pageHeight="850" math="0" shadow="0">
      <root>
        <mxCell id="0" />
        <mxCell id="1" parent="0" />
        <mxCell id="R2AFOgsOH58qEWYiV5Nb-5" value="" style="rounded=1;whiteSpace=wrap;html=1;" vertex="1" parent="1">
          <mxGeometry x="300" y="150" width="730" height="460" as="geometry" />
        </mxCell>
        <mxCell id="R2AFOgsOH58qEWYiV5Nb-3" value="" style="edgeStyle=orthogonalEdgeStyle;rounded=0;orthogonalLoop=1;jettySize=auto;html=1;" edge="1" parent="1" source="R2AFOgsOH58qEWYiV5Nb-1" target="R2AFOgsOH58qEWYiV5Nb-2">
          <mxGeometry relative="1" as="geometry" />
        </mxCell>
        <mxCell id="R2AFOgsOH58qEWYiV5Nb-1" value="ユーザー" style="rounded=1;whiteSpace=wrap;html=1;" vertex="1" parent="1">
          <mxGeometry x="40" y="370" width="120" height="60" as="geometry" />
        </mxCell>
        <mxCell id="R2AFOgsOH58qEWYiV5Nb-2" value="&lt;div&gt;API Gateway&lt;/div&gt;&lt;div&gt;(axum router)&lt;br&gt;&lt;/div&gt;" style="rounded=1;whiteSpace=wrap;html=1;" vertex="1" parent="1">
          <mxGeometry x="330" y="370" width="120" height="60" as="geometry" />
        </mxCell>
        <mxCell id="R2AFOgsOH58qEWYiV5Nb-4" value="" style="endArrow=classic;startArrow=classic;html=1;rounded=0;" edge="1" parent="1" source="R2AFOgsOH58qEWYiV5Nb-2" target="R2AFOgsOH58qEWYiV5Nb-1">
          <mxGeometry width="50" height="50" relative="1" as="geometry">
            <mxPoint x="520" y="450" as="sourcePoint" />
            <mxPoint x="570" y="400" as="targetPoint" />
          </mxGeometry>
        </mxCell>
        <mxCell id="R2AFOgsOH58qEWYiV5Nb-6" value="&lt;div&gt;Request&lt;/div&gt;&lt;div&gt;Response&lt;/div&gt;" style="ellipse;shape=cloud;whiteSpace=wrap;html=1;" vertex="1" parent="1">
          <mxGeometry x="180" y="350" width="120" height="80" as="geometry" />
        </mxCell>
      </root>
    </mxGraphModel>
  </diagram>
</mxfile>
